<svg width="512" height="512" viewBox="0 0 680 680" xmlns="http://www.w3.org/2000/svg">
<defs>
  <linearGradient id="g1" x1="0%" y1="0%" x2="100%" y2="100%">
    <stop offset="0%" stop-color="#00ff88"/>
    <stop offset="100%" stop-color="#00ccff"/>
  </linearGradient>
  <linearGradient id="g2" x1="0%" y1="0%" x2="100%" y2="100%">
    <stop offset="0%" stop-color="#00ccff"/>
    <stop offset="100%" stop-color="#aa44ff"/>
  </linearGradient>
  <linearGradient id="g3" x1="0%" y1="0%" x2="100%" y2="0%">
    <stop offset="0%" stop-color="#00ff88"/>
    <stop offset="100%" stop-color="#aa44ff"/>
  </linearGradient>
  <linearGradient id="card" x1="0%" y1="0%" x2="100%" y2="100%">
    <stop offset="0%" stop-color="#141414"/>
    <stop offset="100%" stop-color="#0e0e0e"/>
  </linearGradient>
</defs>
<rect width="680" height="680" fill="#080808" rx="64"/>
<rect x="60" y="60" width="60" height="6" rx="3" fill="url(#g1)"/>
<rect x="60" y="72" width="36" height="3" rx="1.5" fill="#00ff88" opacity="0.4"/>
<rect x="560" y="60" width="60" height="6" rx="3" fill="url(#g2)"/>
<rect x="584" y="72" width="36" height="3" rx="1.5" fill="#aa44ff" opacity="0.4"/>
<rect x="190" y="160" width="300" height="300" rx="40" fill="url(#card)" stroke="#1e1e1e" stroke-width="1.5"/>
<rect x="240" y="205" width="44" height="210" rx="22" fill="url(#g1)"/>
<rect x="260" y="205" width="100" height="44" rx="22" fill="url(#g1)"/>
<rect x="260" y="371" width="100" height="44" rx="22" fill="url(#g2)"/>
<path d="M 348 227 Q 430 227 430 310" fill="none" stroke="url(#g1)" stroke-width="44" stroke-linecap="round"/>
<path d="M 430 310 Q 430 393 348 393" fill="none" stroke="url(#g2)" stroke-width="44" stroke-linecap="round"/>
<circle cx="430" cy="310" r="16" fill="#0e0e0e"/>
<circle cx="430" cy="310" r="10" fill="url(#g1)"/>
<circle cx="430" cy="310" r="5" fill="#ffffff" opacity="0.9"/>
<rect x="190" y="160" width="24" height="4" rx="2" fill="#00ff88" opacity="0.6"/>
<rect x="190" y="160" width="4" height="24" rx="2" fill="#00ff88" opacity="0.6"/>
<rect x="466" y="160" width="24" height="4" rx="2" fill="#00ccff" opacity="0.6"/>
<rect x="486" y="160" width="4" height="24" rx="2" fill="#00ccff" opacity="0.6"/>
<rect x="190" y="452" width="4" height="24" rx="2" fill="#00ff88" opacity="0.4"/>
<rect x="190" y="472" width="24" height="4" rx="2" fill="#00ff88" opacity="0.4"/>
<rect x="466" y="472" width="24" height="4" rx="2" fill="#aa44ff" opacity="0.4"/>
<rect x="486" y="452" width="4" height="24" rx="2" fill="#aa44ff" opacity="0.4"/>
<text x="340" y="546" font-family="Arial Black,Helvetica Neue,sans-serif" font-size="64" font-weight="900" fill="#ffffff" text-anchor="middle" letter-spacing="14" opacity="0.95">DATTA</text>
<rect x="295" y="562" width="90" height="30" rx="15" fill="url(#g1)"/>
<text x="340" y="583" font-family="Arial Black,sans-serif" font-size="15" font-weight="900" fill="#080808" text-anchor="middle" letter-spacing="5">AI</text>
<rect x="60" y="612" width="560" height="1" rx="0.5" fill="url(#g3)" opacity="0.15"/>
<circle cx="68" cy="630" r="3" fill="#00ff88" opacity="0.5"/>
<circle cx="80" cy="630" r="2" fill="#00ccff" opacity="0.4"/>
<circle cx="89" cy="630" r="1.5" fill="#aa44ff" opacity="0.3"/>
<circle cx="612" cy="630" r="3" fill="#aa44ff" opacity="0.5"/>
<circle cx="600" cy="630" r="2" fill="#00ccff" opacity="0.4"/>
<circle cx="591" cy="630" r="1.5" fill="#00ff88" opacity="0.3"/>
</svg>
